:SAMPLES-PER-SECOND 30
:FULLY-SPECIFIED
:DEGREES
806
root  -44.0967 41.2637 1.06724 -165.731 -86.2746 160.006
RightUpLeg  0.565085 -9.24579 -5.67973
RightLeg  9.95343 -4.11189 1.65881
RightFoot  -3.705 -0.00461336 -0.31709
RightToes  5.82063e-011 0 -3.6325e-017
Spine  13.6136 -0.315794 0.148916
Spine1  7.48702 -0.363831 0.354819
HEad  -16.4505 4.84655 -4.73015
LeftShoulder1  3.46328 -8.13169 -23.4968
LeftArm  -18.6509 25.1459 -8.99162
LeftForeArm  24.1225 -8.47307 0.013532
LeftHand  -0.244104 0.0205437 5.32207
RightShoulder  1.17049 1.53602 16.5493
RightArm  -21.9648 -15.9348 7.73776
RightForeArm  -6.30579 9.49059 3.1229
RightHand  -3.23208 9.43855 -25.2336
LeftUpLeg  4.24738 4.62946 -0.459658
LeftLeg  4.42443 16.4249 -3.66519
LeftFoot  -4.04708 -0.170211 3.05293
LeftToes  1.45487e-011 -6.19069e-011 1.65092e-011
807
root  -44.2832 41.2807 1.12533 -169.227 -85.9963 163.728
RightUpLeg  0.859109 -8.83413 -5.57876
RightLeg  9.403 -4.15289 1.71871
RightFoot  -3.84479 -0.0267927 0.013546
RightToes  5.82063e-011 0 -3.6325e-017
Spine  12.1323 -0.112975 -0.126906
Spine1  6.20244 -0.267752 0.748824
HEad  -14.0967 4.85184 -4.51213
LeftShoulder1  2.71039 -6.99624 -19.2794
LeftArm  -19.6029 28.8514 -6.68737
LeftForeArm  22.0471 -11.1449 0.423817
LeftHand  -0.244104 0.0205437 5.32207
RightShoulder  0.709407 0.135512 12.5133
RightArm  -21.6053 -16.1342 5.36428
RightForeArm  -10.6615 9.78598 3.45553
RightHand  -3.57329 10.2139 -26.4579
LeftUpLeg  4.44599 4.59952 -0.388843
LeftLeg  4.18315 16.7112 -3.72823
LeftFoot  -4.27318 -0.163567 3.06487
LeftToes  1.45487e-011 -6.19069e-011 1.65092e-011
808
root  -44.42 41.2898 1.17421 -172.215 -85.7983 166.814
RightUpLeg  1.14954 -8.63492 -5.49485
RightLeg  9.02109 -4.11501 1.79403
RightFoot  -3.94629 -0.0375765 0.167775
RightToes  5.82063e-011 0 -3.6325e-017
Spine  10.9169 0.0658489 -0.191585
Spine1  5.20589 -0.0958326 0.831271
HEad  -11.8637 4.67221 -4.15034
LeftShoulder1  2.10745 -5.76998 -15.9252
LeftArm  -21.6685 30.7568 -4.02879
LeftForeArm  21.96 -14.1056 0.308884
LeftHand  -0.244104 0.0205437 5.32207
RightShoulder  0.496755 -0.518972 9.32952
RightArm  -21.1915 -16.4701 3.07322
RightForeArm  -14.1136 10.6423 3.79834
RightHand  -3.9184 10.7594 -27.9489
LeftUpLeg  4.60188 4.68502 -0.268059
LeftLeg  4.16319 16.8207 -3.73968
LeftFoot  -4.5063 -0.150734 2.97891
LeftToes  1.45487e-011 -6.19069e-011 1.65092e-011
809
root  -44.5236 41.2895 1.2222 -174.686 -85.5526 169.228
RightUpLeg  1.43165 -8.61557 -5.47648
RightLeg  8.87322 -3.86865 1.86178
RightFoot  -4.06827 -0.0381358 0.163839
RightToes  5.82063e-011 0 -3.6325e-017
Spine  9.94351 0.314022 0.0268302
Spine1  4.63778 0.269794 0.453297
HEad  -10.0052 4.26035 -3.6472
LeftShoulder1  1.64152 -4.60128 -13.2198
LeftArm  -26.1707 31.497 -1.84822
LeftForeArm  24.455 -17.7655 -0.814509
LeftHand  -0.244104 0.0205437 5.32207
RightShoulder  0.395576 -0.808825 7.08615
RightArm  -21.2683 -17.0168 1.1181
RightForeArm  -16.6172 12.0544 4.03766
RightHand  -4.4534 11.7644 -29.7893
LeftUpLeg  4.8596 4.74765 -0.194057
LeftLeg  4.17696 17.0198 -3.72801
LeftFoot  -4.74738 -0.14423 3.00071
LeftToes  1.45487e-011 -6.19069e-011 1.65092e-011
810
root  -44.6 41.2814 1.26812 -175.817 -85.3925 170.221
RightUpLeg  1.653 -8.66157 -5.52767
RightLeg  8.94209 -3.6218 1.85161
RightFoot  -4.24231 -0.0410738 0.197598
RightToes  5.82063e-011 0 -3.6325e-017
Spine  9.17729 0.570229 0.257758
Spine1  4.35332 0.660247 -0.0292661
HEad  -8.41691 3.77444 -3.14671
LeftShoulder1  1.35221 -3.85298 -11.147
LeftArm  -32.0137 32.0762 -0.598522
LeftForeArm  27.5919 -22.1024 -2.84836
LeftHand  -0.244104 0.0205437 5.32207
RightShoulder  0.317441 -1.10975 5.48294
RightArm  -21.948 -17.3409 -0.0448619
RightForeArm  -17.9201 13.4981 4.16326
RightHand  -5.14347 13.3085 -31.4733
LeftUpLeg  5.11446 4.72733 -0.231778
LeftLeg  4.24394 17.2183 -3.66382
LeftFoot  -4.96373 -0.142866 3.10248
LeftToes  1.45487e-011 -6.19069e-011 1.65092e-011
811
root  -44.6501 41.2707 1.3041 -176.145 -85.4553 170.362
RightUpLeg  1.86355 -8.66618 -5.56492
RightLeg  9.1074 -3.62515 1.74396
RightFoot  -4.4198 -0.0481158 0.298431
RightToes  5.82063e-011 0 -3.6325e-017
Spine  8.5726 0.735592 0.28412
Spine1  4.183 0.883336 -0.254338
HEad  -6.6276 3.47301 -2.76585
LeftShoulder1  1.18478 -3.36979 -9.86393
LeftArm  -35.6172 32.543 -0.325349
LeftForeArm  27.8828 -26.8576 -4.33043
LeftHand  -0.244104 0.0205437 5.32207
RightShoulder  0.259977 -1.37798 4.32811
RightArm  -22.6333 -17.1659 -0.412329
RightForeArm  -18.0796 14.4497 4.25269
RightHand  -5.56372 14.4047 -32.114
LeftUpLeg  5.31725 4.71716 -0.271016
LeftLeg  4.39997 17.1677 -3.58327
LeftFoot  -5.12731 -0.138689 3.11682
LeftToes  1.45487e-011 -6.19069e-011 1.65092e-011
812
root  -44.6832 41.2614 1.32931 -176.611 -85.7147 170.682
RightUpLeg  2.04761 -8.64695 -5.5323
RightLeg  9.24254 -3.86905 1.61829
RightFoot  -4.54774 -0.0510353 0.335316
RightToes  5.82063e-011 0 -3.6325e-017
Spine  8.01409 0.805077 0.146112
Spine1  4.00106 0.930254 -0.191803
HEad  -4.24493 3.43006 -2.5528
LeftShoulder1  1.0626 -2.82138 -9.37024
LeftArm  -37.7381 32.5345 -0.720472
LeftForeArm  27.7568 -31.5679 -5.36311
LeftHand  -0.244104 0.0205437 5.32207
RightShoulder  0.237729 -1.47304 3.73369
RightArm  -22.5798 -16.5289 -0.471892
RightForeArm  -17.3768 14.7648 4.34214
RightHand  -5.4937 14.4454 -31.666
LeftUpLeg  5.42836 4.74551 -0.229549
LeftLeg  4.58562 16.8703 -3.52258
LeftFoot  -5.25133 -0.132807 3.06946
LeftToes  1.45487e-011 -6.19069e-011 1.65092e-011
813
root  -44.7138 41.2571 1.3516 -176.98 -86.0767 171.075
RightUpLeg  2.1134 -8.67033 -5.49315
RightLeg  9.2728 -4.19348 1.56088
RightFoot  -4.61771 -0.0486858 0.289497
RightToes  5.82063e-011 0 -3.6325e-017
Spine  7.38006 0.817171 -0.00552452
Spine1  3.68982 0.89721 -0.0544826
HEad  -1.20716 3.50861 -2.5197
LeftShoulder1  1.00711 -2.45242 -9.47965
LeftArm  -38.9119 32.1324 -1.33969
LeftForeArm  29.4173 -35.4522 -6.23869
LeftHand  -0.244104 0.0205437 5.32207
RightShoulder  0.246538 -1.40412 3.76755
RightArm  -21.8645 -15.6613 -0.52234
RightForeArm  -15.2235 14.6323 4.36118
RightHand  -5.12299 13.7576 -30.6541
LeftUpLeg  5.38033 4.70971 -0.202949
LeftLeg  4.68926 16.5575 -3.46786
LeftFoot  -5.31494 -0.131851 3.09197
LeftToes  1.45487e-011 -6.19069e-011 1.65092e-011
814
root  -44.7506 41.2602 1.37587 -176.198 -86.4558 170.465
RightUpLeg  2.08316 -8.72527 -5.53992
RightLeg  9.20018 -4.50065 1.57036
RightFoot  -4.66045 -0.0497441 0.295832
RightToes  5.82063e-011 0 -3.6325e-017
Spine  6.65432 0.793405 -0.0623284
Spine1  3.26893 0.866497 -0.0602068
HEad  2.35113 3.61154 -2.6281
LeftShoulder1  1.07067 -2.66224 -9.98263
LeftArm  -38.9591 31.599 -1.80354
LeftForeArm  32.8244 -37.7388 -6.65182
LeftHand  -0.244104 0.0205437 5.32207
RightShoulder  0.274741 -1.248 4.26241
RightArm  -21.1997 -14.847 -0.394444
RightForeArm  -11.1224 14.3768 4.22023
RightHand  -4.61508 12.7022 -29.3046
LeftUpLeg  5.24682 4.58775 -0.282912
LeftLeg  4.62268 16.3368 -3.44956
LeftFoot  -5.26885 -0.134304 3.16106
LeftToes  1.45487e-011 -6.19069e-011 1.65092e-011
815
root  -44.7932 41.2669 1.3974 -174.218 -86.7947 168.647
RightUpLeg  2.08649 -8.76981 -5.65749
RightLeg  9.10569 -4.77655 1.59094
RightFoot  -4.72614 -0.0569125 0.396432
RightToes  5.82063e-011 0 -3.6325e-017
Spine  5.92288 0.753522 -0.0261781
Spine1  2.93106 0.859921 -0.204338
HEad  6.26736 3.79294 -2.81779
LeftShoulder1  1.2158 -3.24826 -10.7089
LeftArm  -38.3226 30.9018 -2.19502
LeftForeArm  37.1694 -38.1343 -6.50687
LeftHand  -0.244104 0.0205437 5.32207
RightShoulder  0.312518 -1.07188 5.02243
RightArm  -20.8792 -14.2472 0.0689996
RightForeArm  -6.5254 14.2657 3.99461
RightHand  -4.07353 11.4325 -27.8996
LeftUpLeg  5.20866 4.49306 -0.39241
LeftLeg  4.4109 16.0936 -3.53202
LeftFoot  -5.17062 -0.134199 3.18415
LeftToes  1.45487e-011 -6.19069e-011 1.65092e-011
816
root  -44.8374 41.2704 1.40742 -172.156 -87.1075 166.651
RightUpLeg  2.1627 -8.81799 -5.74871
RightLeg  9.08503 -5.03698 1.57973
RightFoot  -4.84432 -0.0615588 0.457462
RightToes  5.82063e-011 0 -3.6325e-017
Spine  5.25336 0.70998 -0.0589637
Spine1  2.8406 0.818563 -0.204853
HEad  10.3267 4.11378 -3.09336
LeftShoulder1  1.35322 -3.72543 -11.5075
LeftArm  -37.5529 30.0114 -2.94677
LeftForeArm  40.9944 -36.8905 -5.95619
LeftHand  -0.244104 0.0205437 5.32207
RightShoulder  0.356798 -0.893929 5.94632
RightArm  -20.5057 -13.8747 0.686496
RightForeArm  -3.44571 14.3356 3.88032
RightHand  -3.70955 10.4563 -27.0214
LeftUpLeg  5.29592 4.49351 -0.417524
LeftLeg  4.19877 15.7364 -3.68142
LeftFoot  -5.14339 -0.133321 3.18936
LeftToes  1.45487e-011 -6.19069e-011 1.65092e-011
817
root  -44.881 41.2697 1.40261 -170.209 -87.4194 164.735
RightUpLeg  2.2152 -8.88791 -5.77063
RightLeg  9.17396 -5.28781 1.5127
RightFoot  -4.99748 -0.0589114 0.405021
RightToes  5.82063e-011 0 -3.6325e-017
Spine  4.61705 0.655954 -0.361729
Spine1  3.01802 0.67116 0.196039
HEad  14.1837 4.56504 -3.50183
LeftShoulder1  1.45181 -3.96873 -12.293
LeftArm  -36.8409 29.1958 -4.22051
LeftForeArm  42.5621 -34.3179 -5.22078
LeftHand  -0.244104 0.0205437 5.32207
RightShoulder  0.411146 -0.676267 6.92396
RightArm  -19.7563 -13.7299 1.26884
RightForeArm  -1.76933 14.4082 3.90751
RightHand  -3.73463 10.5998 -26.956
LeftUpLeg  5.37064 4.52813 -0.383461
LeftLeg  4.09872 15.3726 -3.79172
LeftFoot  -5.17515 -0.134252 3.2172
LeftToes  1.45487e-011 -6.19069e-011 1.65092e-011
818
root  -44.9252 41.2675 1.38795 -167.735 -87.6578 162.328
RightUpLeg  2.17659 -8.94491 -5.76309
RightLeg  9.32363 -5.48423 1.3986
RightFoot  -5.14316 -0.0564442 0.355287
RightToes  5.82063e-011 0 -3.6325e-017
Spine  3.99379 0.58811 -0.898384
Spine1  3.39291 0.447237 0.862908
HEad  17.4359 5.15772 -3.99407
LeftShoulder1  1.52662 -4.0846 -13.0522
LeftArm  -36.0011 28.715 -5.76373
LeftForeArm  41.1291 -30.6747 -4.43886
LeftHand  -0.244104 0.0205437 5.32207
RightShoulder  0.471508 -0.441783 7.88926
RightArm  -18.8836 -13.8061 1.86839
RightForeArm  0.0616406 14.3524 3.9235
RightHand  -4.06674 11.7835 -27.3151
LeftUpLeg  5.36627 4.5231 -0.384384
LeftLeg  4.07324 15.1492 -3.8319
LeftFoot  -5.16302 -0.132147 3.19255
LeftToes  1.45487e-011 -6.19069e-011 1.65092e-011
819
root  -44.9708 41.2655 1.37004 -165.582 -87.7541 160.27
RightUpLeg  2.103 -8.96149 -5.75423
RightLeg  9.44555 -5.58022 1.30655
RightFoot  -5.25138 -0.0597088 0.394605
RightToes  5.82063e-011 0 -3.6325e-017
Spine  3.51021 0.508685 -1.37866
Spine1  3.82858 0.246623 1.38124
HEad  19.8199 5.88834 -4.38236
LeftShoulder1  1.57943 -4.09934 -13.7714
LeftArm  -34.8965 28.6563 -7.31113
LeftForeArm  38.0413 -26.502 -3.69249
LeftHand  -0.244104 0.0205437 5.32207
RightShoulder  0.525419 -0.292253 8.96772
RightArm  -18.2523 -14.0684 2.49183
RightForeArm  2.32897 14.2434 3.8554
RightHand  -4.28324 12.6329 -27.4091
LeftUpLeg  5.34108 4.48903 -0.418051
LeftLeg  4.04981 15.0381 -3.8388
LeftFoot  -5.13636 -0.125662 3.09484
LeftToes  1.45487e-011 -6.19069e-011 1.65092e-011
820
root  -45.0131 41.2634 1.34995 -165.026 -87.7856 159.796
RightUpLeg  2.06249 -8.98437 -5.72833
RightLeg  9.50505 -5.59866 1.29465
RightFoot  -5.3151 -0.0613807 0.409438
RightToes  5.82063e-011 0 -3.6325e-017
Spine  3.3411 0.412588 -1.60874
Spine1  4.16352 0.109047 1.53741
HEad  21.3692 6.57641 -4.48023
LeftShoulder1  1.62538 -4.08289 -14.4813
LeftArm  -33.1773 29.0895 -8.81842
LeftForeArm  35.0565 -22.5339 -2.81166
LeftHand  -0.244104 0.0205437 5.32207
RightShoulder  0.579684 -0.201116 10.2902
RightArm  -17.8276 -14.6417 2.94595
RightForeArm  3.90803 14.2158 3.77782
RightHand  -4.10286 12.1973 -26.9255
LeftUpLeg  5.31385 4.46913 -0.414838
LeftLeg  4.0547 14.949 -3.81803
LeftFoot  -5.17981 -0.123136 3.05417
LeftToes  1.45487e-011 -6.19069e-011 1.65092e-011
